<?xml version="1.0" standalone="no"?>
<!DOCTYPE svg PUBLIC "-//W3C//DTD SVG 20010904//EN"
 "http://www.w3.org/TR/2001/REC-SVG-20010904/DTD/svg10.dtd">
<svg version="1.0" xmlns="http://www.w3.org/2000/svg"
 width="250.000000pt" height="250.000000pt" viewBox="0 0 250.000000 250.000000"
 preserveAspectRatio="xMidYMid meet">

<g transform="translate(0.000000,250.000000) scale(0.100000,-0.100000)"
fill="#000000" stroke="none">
<path d="M1310 1949 c-122 -20 -153 -44 -496 -385 l-317 -316 314 -314 c287
-288 320 -318 388 -352 72 -36 79 -37 181 -37 102 0 109 1 182 38 236 116 303
412 142 624 -13 17 -24 34 -24 37 0 4 18 32 39 64 52 77 73 141 73 232 0 208
-145 376 -354 410 -35 5 -65 9 -68 9 -3 -1 -30 -5 -60 -10z"/>
</g>
</svg>
